<svg>
	<symbol id="searchIcon" xmlns="http://www.w3.org/2000/svg" xmlns:xlink="http://www.w3.org/1999/xlink">
		<g>
			<path d="M27.012,26.582 L25.582,28.012 L17.460,19.890 C15.644,21.211 13.417,22.000 11.000,22.000 C4.925,22.000 -0.000,17.075 -0.000,11.000 C-0.000,4.925 4.925,0.000 11.000,0.000 C17.075,0.000 22.000,4.925 22.000,11.000 C22.000,13.928 20.848,16.582 18.983,18.553 L27.012,26.582 ZM11.000,2.000 C6.029,2.000 2.000,6.029 2.000,11.000 C2.000,15.971 6.029,20.000 11.000,20.000 C15.971,20.000 20.000,15.971 20.000,11.000 C20.000,6.029 15.971,2.000 11.000,2.000 Z"/>
		</g>
	</symbol>
</svg>